<svg width="30" height="32" viewBox="0 0 30 32" fill="none" xmlns="http://www.w3.org/2000/svg">
<path d="M22.6236 6.04234C21.8442 5.51498 20.9006 5.20703 19.8903 5.20703C19.217 5.20703 18.5724 5.34403 17.9871 5.59201C17.1093 5.96357 16.3642 6.58219 15.8368 7.36198C15.3102 8.14084 15.0018 9.08539 15.002 10.0953C15.002 10.7685 15.1387 11.4131 15.3863 11.9986C15.7578 12.8764 16.3769 13.6217 17.1565 14.1482C17.9363 14.6755 18.8799 14.9835 19.8902 14.9835C20.5635 14.9835 21.2081 14.847 21.7931 14.599C22.6709 14.2279 23.4162 13.6088 23.9432 12.8286C24.4695 12.0497 24.7789 11.1052 24.7784 10.0953C24.7784 9.42202 24.6415 8.77744 24.3939 8.19234C24.0224 7.31456 23.4033 6.5692 22.6236 6.04234ZM23.227 11.5044C22.9521 12.1535 22.4924 12.7077 21.9145 13.098C21.3352 13.4888 20.6423 13.7158 19.8903 13.7162C19.3884 13.7157 18.9139 13.6146 18.481 13.4319C17.832 13.1579 17.2776 12.6973 16.8872 12.1194C16.4969 11.5406 16.2695 10.8472 16.269 10.0952C16.269 9.59377 16.3702 9.11933 16.5536 8.686C16.8279 8.03685 17.2879 7.48315 17.8658 7.09236C18.4448 6.702 19.1378 6.47461 19.8903 6.47461C20.392 6.47461 20.8661 6.57576 21.299 6.75845C21.9485 7.03282 22.5027 7.49348 22.893 8.07135C23.2834 8.65014 23.5108 9.34313 23.5108 10.0952C23.5108 10.5966 23.4096 11.072 23.227 11.5044Z" fill="#BF9065"/>
<path d="M19.8904 7.99414C18.7306 7.99414 17.79 8.90914 17.79 10.038C17.79 11.1665 18.7306 12.0815 19.8904 12.0815C21.0502 12.0815 21.9907 11.1665 21.9907 10.038C21.9907 8.90914 21.0502 7.99414 19.8904 7.99414Z" fill="#BF9065"/>
<path d="M26.6919 17.5269C26.7546 17.4794 26.8154 17.4334 26.8727 17.3881C26.9305 17.3425 26.982 17.3008 27.0388 17.2449C27.6861 16.5976 28.2452 15.863 28.6955 15.0657C29.5541 13.5465 29.9995 11.8204 30 10.084C30 9.76297 29.9843 9.44204 29.9539 9.12241C29.5774 5.21271 26.8862 1.80842 23.1744 0.530822C22.0557 0.146894 20.9011 0 19.7454 0C16.893 0.00315303 14.0122 0.880995 11.4609 1.40959H11.4614C8.01946 2.12403 4.55477 2.5359 1.03784 2.88768L1.00582 2.89084L0.974535 2.89801C0.857934 2.92484 0.769958 2.94005 0.689834 2.95439C0.628937 2.96515 0.572739 2.97498 0.497561 2.99557C0.441857 3.01214 0.370203 3.03588 0.286988 3.09139C0.225411 3.13207 0.16099 3.19433 0.115488 3.26376C0.0456881 3.36936 0.0219476 3.47192 0.0111902 3.54444C0.000680051 3.61876 0.000494594 3.67557 0 3.73195C0.000247297 3.82778 0.00401861 3.92584 0.00401861 4.06142C0.00401861 4.90117 0.00401861 5.74143 0.00401861 6.58118C0.00401861 8.86101 0.00401861 11.1408 0.00401861 13.4207C0.00401861 14.3433 0.00401861 15.2662 0.00401861 16.1893C0.0042659 16.3594 0.0176817 16.513 0.0575583 16.6638C0.0872957 16.7757 0.133417 16.8881 0.205071 16.9906C0.310667 17.1472 0.478767 17.2641 0.634378 17.316C0.791473 17.3706 0.932061 17.3791 1.06096 17.3801C1.22282 17.3796 1.37274 17.363 1.52632 17.3492C1.67939 17.3353 1.83469 17.3223 1.99587 17.3223C2.02963 17.3223 2.06326 17.3228 2.09615 17.3246L2.10221 17.325C6.21673 17.4705 10.3518 18.5806 14.4743 19.398C15.5847 19.6182 16.7022 19.8304 17.8321 20.0006C17.83 20.0381 17.8287 20.0757 17.8287 20.1169C17.8287 20.655 17.8802 21.1925 17.9808 21.7199C18.0873 22.2772 18.2742 22.77 18.5042 23.2253C18.7348 23.6801 19.0051 24.0991 19.2858 24.5216C19.4501 24.7733 19.4868 24.942 19.49 25.1287C19.4913 25.3247 19.4287 25.5597 19.3297 25.8556C19.2326 26.1501 19.1045 26.5006 19.037 26.9201C18.9939 27.1851 18.9729 27.442 18.9729 27.6905C18.9729 28.3288 19.1116 28.9085 19.3583 29.409C19.7277 30.1619 20.332 30.7273 21.0262 31.0974C21.7219 31.469 22.5111 31.6534 23.2918 31.6539C24.255 31.6534 25.217 31.3722 25.9624 30.759C26.3335 30.4528 26.6463 30.0616 26.8625 29.5942C27.0787 29.1265 27.1974 28.5853 27.197 27.9845C27.197 27.9062 27.1947 27.827 27.1906 27.7469V27.7357L27.1893 27.7244C26.8804 24.4437 26.572 21.1634 26.2632 17.8831C26.2837 17.8616 26.3101 17.8356 26.3411 17.8083C26.4358 17.7221 26.5674 17.6209 26.6919 17.5269ZM5.04467 15.8053C3.88794 15.6446 2.87155 15.5573 1.78604 15.534V4.60664C2.59717 4.53097 3.60497 4.44374 4.84695 4.29777C4.91212 4.28973 4.97858 4.2817 5.04461 4.27409L5.04467 15.8053ZM25.2222 28.8191C25.1332 29.0017 25.0159 29.162 24.8731 29.3034C24.6591 29.5152 24.3869 29.6844 24.0785 29.7994C23.771 29.9149 23.4299 29.9748 23.091 29.9748C22.6205 29.9758 22.1595 29.8576 21.796 29.64C21.6129 29.5308 21.4535 29.3978 21.3206 29.2398C21.1876 29.0814 21.0806 28.8983 21.0037 28.6802C20.825 28.1673 20.77 27.8091 20.77 27.5271C20.77 27.3722 20.7862 27.2366 20.8143 27.1005C20.8564 26.8977 20.9294 26.6891 21.0198 26.4367C21.1093 26.1851 21.2141 25.8914 21.2924 25.5365C21.3269 25.3847 21.3434 25.2334 21.3434 25.0857C21.3434 24.8986 21.3165 24.7187 21.2718 24.5521C21.1926 24.2584 21.0628 24.0065 20.9236 23.7759C20.7132 23.4308 20.4791 23.1259 20.2794 22.8045C20.0794 22.4832 19.9119 22.151 19.8125 21.7544C19.6555 21.1272 19.6102 20.5587 19.6102 20.1169C19.6102 19.9539 19.616 19.8085 19.6254 19.6836C19.7172 19.688 19.8063 19.6908 19.8904 19.6908C21.5722 19.6908 23.1555 19.2565 24.5311 18.4946L25.4116 27.854C25.4129 27.8852 25.4134 27.9162 25.4134 27.9461C25.413 28.2927 25.3414 28.5764 25.2222 28.8191ZM24.5459 17.0014C23.2164 17.8993 21.6174 18.423 19.8904 18.4235C19.6948 18.4235 19.4186 18.4052 19.0941 18.3703C18.5242 18.3094 17.8013 18.1992 17.0211 18.0632C15.8498 17.8599 14.5467 17.5994 13.3974 17.363C12.8229 17.2449 12.2866 17.1325 11.8235 17.0363C11.3604 16.94 10.9714 16.8603 10.6863 16.8053C8.90689 16.4633 7.51232 16.1982 6.312 15.9995V4.11118C7.56518 3.93839 9.01261 3.70735 10.6863 3.38512C11.1203 3.30191 11.7983 3.15952 12.6064 2.99118C13.8178 2.73962 15.3185 2.43074 16.6831 2.18722C17.3653 2.06456 18.0135 1.95896 18.5704 1.88465C18.8483 1.847 19.1039 1.81751 19.3278 1.79692C19.5512 1.7772 19.7441 1.76737 19.8905 1.76737C21.0423 1.7678 22.1358 2.00014 23.1319 2.42178C24.6256 3.053 25.8988 4.11026 26.7967 5.43979C27.6942 6.76925 28.2184 8.36827 28.2184 10.0953C28.2184 11.2466 27.9856 12.3411 27.5644 13.3367C26.9323 14.8304 25.8758 16.1034 24.5459 17.0014Z" fill="#BF9065"/>
</svg>
