<svg width="30" height="30" viewBox="0 0 30 30" fill="none" xmlns="http://www.w3.org/2000/svg">
<path d="M15 13.5C14.7033 13.5 14.4133 13.588 14.1666 13.7528C13.92 13.9176 13.7277 14.1519 13.6142 14.426C13.5006 14.7001 13.4709 15.0017 13.5288 15.2926C13.5867 15.5836 13.7296 15.8509 13.9393 16.0607C14.1491 16.2704 14.4164 16.4133 14.7074 16.4712C14.9983 16.5291 15.2999 16.4994 15.574 16.3858C15.8481 16.2723 16.0824 16.08 16.2472 15.8334C16.412 15.5867 16.5 15.2967 16.5 15C16.5 14.6022 16.342 14.2206 16.0607 13.9393C15.7794 13.658 15.3978 13.5 15 13.5ZM15.75 0C22.5 0 22.65 5.355 19.095 7.125C18.4345 7.51664 17.8722 8.05403 17.451 8.69615C17.0299 9.33826 16.761 10.0681 16.665 10.83C17.3822 11.1275 18.0157 11.5962 18.51 12.195C24 9.195 30 10.38 30 15.75C30 22.5 24.63 22.65 22.875 19.095C22.472 18.4348 21.9258 17.8736 21.2767 17.453C20.6276 17.0324 19.8922 16.7631 19.125 16.665C18.8238 17.3802 18.3558 18.0128 17.76 18.51C20.76 24.045 19.56 30 14.19 30C7.5 30 7.335 24.63 10.89 22.86C11.5398 22.4632 12.0944 21.9283 12.5143 21.2931C12.9343 20.658 13.2093 19.9383 13.32 19.185C12.5848 18.8974 11.9381 18.4215 11.445 17.805C5.91 20.775 0 19.605 0 14.25C0 7.5 5.31 7.335 7.08 10.89C7.47739 11.5474 8.01854 12.1062 8.66283 12.5244C9.30712 12.9427 10.0378 13.2096 10.8 13.305C11.0888 12.583 11.5652 11.9512 12.18 11.475C9.195 6 10.38 0 15.72 0H15.75Z" fill="#BF9065"/>
</svg>
