<svg width="30" height="30" viewBox="0 0 30 30" fill="none" xmlns="http://www.w3.org/2000/svg">
<path fill-rule="evenodd" clip-rule="evenodd" d="M20.625 20.625H7.5C7.5 20.625 1.83938 20.0447 1.875 15C1.89469 12.1537 4.51219 9.60938 7.5 9.375C7.5 5.49187 9.98531 1.875 14.0625 1.875C17.2809 1.875 19.4278 3.83998 20.1928 6.5756C24.8372 6.3731 27.9787 10.0481 28.125 13.125C28.3219 17.2622 24.0009 20.625 20.625 20.625ZM21.6253 4.71376C20.2491 1.9247 17.3841 0 14.0625 0C9.60938 0 5.97188 3.45185 5.65594 7.82341C2.38313 8.75622 0 11.6156 0 15C0 18.9938 3.31875 22.2478 7.5 22.4784C7.5 22.4784 20.4666 22.5 20.625 22.5C25.5441 22.5 30 18.5128 30 13.5938C30 8.85469 26.295 4.99033 21.6253 4.71376ZM23.4375 25.3125C22.92 25.3125 22.5 25.7316 22.5 26.25V29.0625C22.5 29.5809 22.92 30 23.4375 30C23.955 30 24.375 29.5809 24.375 29.0625V26.25C24.375 25.7316 23.955 25.3125 23.4375 25.3125ZM17.8125 25.3125C17.295 25.3125 16.875 25.7316 16.875 26.25V29.0625C16.875 29.5809 17.295 30 17.8125 30C18.33 30 18.75 29.5809 18.75 29.0625V26.25C18.75 25.7316 18.33 25.3125 17.8125 25.3125ZM6.5625 25.3125C6.045 25.3125 5.625 25.7316 5.625 26.25V29.0625C5.625 29.5809 6.045 30 6.5625 30C7.08 30 7.5 29.5809 7.5 29.0625V26.25C7.5 25.7316 7.08 25.3125 6.5625 25.3125ZM12.1875 25.3125C11.67 25.3125 11.25 25.7316 11.25 26.25V29.0625C11.25 29.5809 11.67 30 12.1875 30C12.705 30 13.125 29.5809 13.125 29.0625V26.25C13.125 25.7316 12.705 25.3125 12.1875 25.3125Z" fill="#BF9065"/>
</svg>
