<svg width="20" height="30" viewBox="0 0 20 30" fill="none" xmlns="http://www.w3.org/2000/svg">
<path d="M8.18228 15.0003C8.18228 15.7535 7.57179 16.3639 6.81866 16.3639C6.06558 16.3639 5.45508 15.7535 5.45508 15.0003C5.45508 14.2472 6.06558 13.6367 6.81866 13.6367C7.57179 13.6367 8.18228 14.2472 8.18228 15.0003Z" fill="#BF9065"/>
<path d="M12.2733 16.3639C13.0264 16.3639 13.6369 15.7535 13.6369 15.0003C13.6369 14.2472 13.0264 13.6367 12.2733 13.6367C11.5202 13.6367 10.9097 14.2472 10.9097 15.0003C10.9097 15.7535 11.5202 16.3639 12.2733 16.3639Z" fill="#BF9065"/>
<path fill-rule="evenodd" clip-rule="evenodd" d="M19.0909 4.09084C19.0909 1.83154 17.2594 0 15.0001 0H4.0912C1.83188 0 0.000360104 1.83154 0.000360104 4.09084V16.3633C0.000360104 18.3909 1.47545 20.074 3.41103 20.3979L0.110608 28.0989C-0.186059 28.791 0.134594 29.5927 0.826805 29.8894C1.51902 30.186 2.32066 29.8654 2.61732 29.1731L2.8476 28.6359H16.2437L16.474 29.1731C16.7706 29.8654 17.5723 30.186 18.2644 29.8894C18.9567 29.5927 19.2773 28.791 18.9807 28.0989L15.6802 20.3979C17.6159 20.074 19.0909 18.3909 19.0909 16.3633V4.09084ZM15.0749 25.9086H4.0164L4.60081 24.545H14.4905L15.0749 25.9086ZM13.3216 21.8178H5.76963L6.35403 20.4542H12.7373L13.3216 21.8178ZM16.3637 4.09084C16.3637 3.33774 15.7532 2.72722 15.0001 2.72722H10.9092V9.54529H16.3637V4.09084ZM8.18201 9.54529V2.72722H4.0912C3.33809 2.72722 2.72759 3.33773 2.72759 4.09084V9.54529H8.18201ZM2.72759 16.3633V12.2725H16.3637V16.3633C16.3637 17.1165 15.7532 17.727 15.0001 17.727H4.0912C3.33809 17.727 2.72759 17.1165 2.72759 16.3633Z" fill="#BF9065"/>
</svg>
