<svg width="26" height="26" viewBox="0 0 26 26" fill="none" xmlns="http://www.w3.org/2000/svg">
<path fill-rule="evenodd" clip-rule="evenodd" d="M12.5701 4.67773C8.21393 4.67773 4.67725 8.21442 4.67725 12.5706C4.67725 16.9268 8.21393 20.4635 12.5701 20.4635C16.9263 20.4635 20.463 16.9268 20.463 12.5706C20.463 8.21442 16.9263 4.67773 12.5701 4.67773ZM12.5701 6.43171C15.9583 6.43171 18.7091 9.18245 18.7091 12.5706C18.7091 15.9588 15.9583 18.7095 12.5701 18.7095C9.18199 18.7095 6.43122 15.9588 6.43122 12.5706C6.43122 9.18245 9.18199 6.43171 12.5701 6.43171Z" fill="#BF9065"/>
<path fill-rule="evenodd" clip-rule="evenodd" d="M12.5699 9.93945C11.1179 9.93945 9.93896 11.1183 9.93896 12.5704C9.93896 14.0225 11.1179 15.2014 12.5699 15.2014C14.022 15.2014 15.2009 14.0225 15.2009 12.5704C15.2009 11.1183 14.022 9.93945 12.5699 9.93945ZM12.5699 11.6934C13.0539 11.6934 13.4469 12.0864 13.4469 12.5704C13.4469 13.0544 13.0539 13.4474 12.5699 13.4474C12.0859 13.4474 11.6929 13.0544 11.6929 12.5704C11.6929 12.0864 12.0859 11.6934 12.5699 11.6934Z" fill="#BF9065"/>
<path fill-rule="evenodd" clip-rule="evenodd" d="M25.1403 5.55424C25.1403 2.48672 22.6536 0 19.5861 0C15.5103 0 9.63009 0 5.55427 0C4.08118 0 2.66843 0.585182 1.62682 1.62679C0.585183 2.66843 0 4.08118 0 5.55427C0 9.63006 0 15.5103 0 19.5861C0 22.6536 2.48672 25.1403 5.55427 25.1403C8.77684 25.1403 12.8941 25.1403 15.2846 25.1403C16.7755 25.1403 18.2039 24.5409 19.2483 23.4769C20.4933 22.2086 22.316 20.3518 23.5498 19.0948C24.5692 18.0563 25.1403 16.6592 25.1403 15.204V5.55424ZM23.3864 5.55418V15.204C23.3864 16.1997 22.9956 17.1556 22.2981 17.8662L17.9966 22.2482C17.282 22.9762 16.3047 23.3863 15.2847 23.3863C15.2845 23.3863 5.55427 23.3863 5.55427 23.3863C3.45539 23.3863 1.75398 21.6849 1.75398 19.5861C1.75398 15.5103 1.75398 9.63006 1.75398 5.55427C1.75398 4.54636 2.15436 3.57974 2.86706 2.86706C3.57977 2.15436 4.54636 1.75398 5.55427 1.75398C9.63009 1.75398 15.5103 1.75398 19.5861 1.75398C21.6849 1.75398 23.3863 3.45539 23.3864 5.55418Z" fill="#BF9065"/>
<path fill-rule="evenodd" clip-rule="evenodd" d="M8.44207 15.4579L4.34947 19.5505C4.00721 19.8927 4.00721 20.4485 4.34947 20.7907C4.69171 21.133 5.24745 21.133 5.58971 20.7907L9.68231 16.6981C10.0246 16.3559 10.0246 15.8001 9.68231 15.4579C9.34005 15.1156 8.78434 15.1156 8.44207 15.4579Z" fill="#BF9065"/>
</svg>
